<?xml version="1.0" encoding="utf-8"?>
<!-- Generator: Adobe Illustrator 25.1.0, SVG Export Plug-In . SVG Version: 6.00 Build 0)  -->
<svg version="1.1" id="Layer_1" xmlns="http://www.w3.org/2000/svg" xmlns:xlink="http://www.w3.org/1999/xlink" x="0px" y="0px"
	 viewBox="0 0 25 25" style="enable-background:new 0 0 25 25;" xml:space="preserve">
<style type="text/css">
	.st0{fill:#5865F2;}
</style>
<g>
	<path class="st0" d="M21.2,4.5c-1.6-0.7-3.3-1.3-5.1-1.6c0,0-0.1,0-0.1,0c-0.2,0.4-0.5,0.9-0.6,1.3C13.4,4,11.5,4,9.6,4.3
		C9.5,3.9,9.2,3.4,9,3c0,0,0,0-0.1,0C7.1,3.3,5.4,3.8,3.8,4.5c0,0,0,0,0,0c-3.2,4.8-4.1,9.6-3.7,14.2c0,0,0,0,0,0.1
		c2.1,1.6,4.2,2.5,6.2,3.2c0,0,0.1,0,0.1,0c0.5-0.7,0.9-1.3,1.3-2.1c0,0,0-0.1,0-0.1c-0.7-0.3-1.3-0.6-2-0.9c0,0-0.1-0.1,0-0.1
		c0.1-0.1,0.3-0.2,0.4-0.3c0,0,0.1,0,0.1,0c4.1,1.9,8.5,1.9,12.6,0c0,0,0.1,0,0.1,0c0.1,0.1,0.3,0.2,0.4,0.3c0,0,0,0.1,0,0.1
		c-0.6,0.4-1.3,0.7-2,0.9c0,0-0.1,0.1,0,0.1c0.4,0.7,0.8,1.4,1.3,2.1c0,0,0.1,0,0.1,0c2-0.6,4.1-1.6,6.3-3.2c0,0,0,0,0-0.1
		C25.4,13.4,24,8.7,21.2,4.5C21.2,4.5,21.2,4.5,21.2,4.5z M8.4,15.9c-1.2,0-2.2-1.1-2.2-2.5s1-2.5,2.2-2.5c1.3,0,2.3,1.1,2.2,2.5
		C10.6,14.8,9.6,15.9,8.4,15.9z M16.7,15.9c-1.2,0-2.2-1.1-2.2-2.5s1-2.5,2.2-2.5c1.3,0,2.3,1.1,2.2,2.5
		C18.9,14.8,17.9,15.9,16.7,15.9z"/>
</g>
</svg>
