<?xml version="1.0" encoding="utf-8"?>
<!-- Generator: Adobe Illustrator 25.1.0, SVG Export Plug-In . SVG Version: 6.00 Build 0)  -->
<svg version="1.1" id="Layer_1" xmlns="http://www.w3.org/2000/svg" xmlns:xlink="http://www.w3.org/1999/xlink" x="0px" y="0px"
	 viewBox="0 0 25 25" style="enable-background:new 0 0 25 25;" xml:space="preserve">
<style type="text/css">
	.st0{fill:#2CAAE1;}
</style>
<path class="st0" d="M25,4.75c-0.92,0.41-1.91,0.68-2.95,0.81c1.06-0.63,1.87-1.64,2.26-2.84c-0.99,0.59-2.09,1.01-3.26,1.24
	c-0.94-1-2.27-1.62-3.74-1.62c-2.83,0-5.13,2.3-5.13,5.13c0,0.4,0.05,0.79,0.13,1.17C8.05,8.43,4.27,6.38,1.74,3.28
	C1.3,4.04,1.05,4.92,1.05,5.86c0,1.78,0.91,3.35,2.28,4.27C2.49,10.1,1.7,9.87,1,9.49c0,0.02,0,0.04,0,0.06
	c0,2.49,1.77,4.56,4.11,5.03c-0.43,0.12-0.88,0.18-1.35,0.18c-0.33,0-0.65-0.03-0.97-0.09c0.65,2.04,2.55,3.52,4.79,3.56
	c-1.76,1.38-3.97,2.2-6.37,2.2c-0.41,0-0.82-0.02-1.22-0.07c2.27,1.46,4.97,2.3,7.86,2.3c9.43,0,14.59-7.82,14.59-14.59
	c0-0.22-0.01-0.44-0.01-0.66C23.44,6.68,24.31,5.78,25,4.75z"/>
</svg>
